<?xml version="1.0" encoding="UTF-8" standalone="no"?>
<svg width="143px" height="121px" viewBox="0 0 143 121" version="1.1" xmlns="http://www.w3.org/2000/svg" xmlns:xlink="http://www.w3.org/1999/xlink">
    <!-- Generator: Sketch 3.6.1 (26313) - http://www.bohemiancoding.com/sketch -->
    <title>Logo</title>
    <desc>Created with Sketch.</desc>
    <defs></defs>
    <g id="Landing" stroke="none" stroke-width="1" fill="none" fill-rule="evenodd">
        <g transform="translate(-116.000000, -88.000000)" id="Content">
            <g transform="translate(0.000000, 88.000000)">
                <g id="Masthead" transform="translate(116.000000, 0.000000)">
                    <g id="Logo">
                        <g id="RISEN" transform="translate(0.000000, 29.000000)" fill="#F17D5F">
                            <path d="M8.6437,9.7405 L11.1297,9.7405 C16.2857,9.7405 18.0257,11.7955 18.0257,17.8835 L18.0257,21.3995 C18.0257,29.1675 16.0907,30.5885 12.2797,30.5885 L8.6437,30.5885 L8.6437,9.7405 Z M11.1297,1.4145 L2.4997,1.4145 L-0.0003,1.4145 L-0.0003,3.9145 L-0.0003,67.3935 L-0.0003,69.8935 L2.4997,69.8935 L6.1437,69.8935 L8.6437,69.8935 L8.6437,67.3935 L8.6437,39.0095 L11.8007,39.0095 C15.1257,39.0095 16.0517,39.7225 16.5197,40.4195 C17.5087,41.8945 17.6417,45.1315 17.6417,48.1025 L17.6407,49.4015 C17.6317,54.4695 17.6147,63.9045 18.3557,67.8545 L18.7387,69.8935 L20.8127,69.8935 L24.5527,69.8935 L27.5537,69.8935 L27.0117,66.9425 C26.3587,63.3805 26.3717,54.6255 26.3797,49.3945 L26.3817,47.7225 C26.3817,42.6155 25.8507,37.6405 22.7117,34.6245 C25.4687,31.9035 26.8607,27.4145 26.8607,21.2095 L26.8607,17.7885 C26.8607,6.6175 21.8617,1.4145 11.1297,1.4145 L11.1297,1.4145 Z M6.1437,33.0885 L12.2797,33.0885 C19.2787,33.0885 20.5257,28.0515 20.5257,21.3995 L20.5257,17.8835 C20.5257,11.2325 18.3207,7.2405 11.1297,7.2405 L6.1437,7.2405 L6.1437,33.0885 L6.1437,33.0885 Z M11.1297,3.9145 C20.6217,3.9145 24.3607,8.2855 24.3607,17.7885 L24.3607,21.2095 C24.3607,28.7165 22.2517,33.2775 17.8407,34.7035 C22.1557,35.9395 23.8817,39.3595 23.8817,47.7225 C23.8817,53.2345 23.7857,63.2125 24.5527,67.3935 L20.8127,67.3935 C20.0467,63.3065 20.1417,52.3785 20.1417,48.1025 C20.1417,39.3595 18.7997,36.5095 11.8007,36.5095 L6.1437,36.5095 L6.1437,67.3935 L2.4997,67.3935 L2.4997,3.9145 L11.1297,3.9145 L11.1297,3.9145 Z" id="Fill-1"></path>
                            <path d="M41.8973,1.4149 L39.3973,1.4149 L35.7533,1.4149 L33.2533,1.4149 L33.2533,3.9149 L33.2533,67.3929 L33.2533,69.8929 L35.7533,69.8929 L39.3973,69.8929 L41.8973,69.8929 L41.8973,67.3929 L41.8973,3.9149 L41.8973,1.4149 Z M35.7533,67.3929 L39.3973,67.3929 L39.3973,3.9149 L35.7533,3.9149 L35.7533,67.3929 Z" id="Fill-4"></path>
                            <path d="M62.4111,0.6532 C50.9591,0.6532 49.2491,11.3302 49.2491,17.6942 C49.2491,28.2412 53.4461,31.9992 60.2931,37.2572 C66.2911,41.8222 67.7541,44.7142 67.7541,51.9992 C67.7541,62.3272 64.7271,62.3272 62.2951,62.3272 C60.7761,62.3272 56.7411,62.3272 56.7411,53.8052 L56.7411,50.3832 L56.7411,47.8832 L54.2411,47.8832 L50.5981,47.8832 L48.0981,47.8832 L48.0981,50.3832 L48.0981,53.8992 C48.0981,67.7462 55.8711,70.6532 62.3911,70.6532 C76.4931,70.6532 76.4931,56.3272 76.4931,51.6192 C76.4931,40.0062 72.8701,35.9622 64.6021,29.5032 C58.7671,25.0742 57.8921,23.4572 57.8921,17.1232 C57.8921,8.9812 60.9961,8.9812 62.4881,8.9812 C64.7571,8.9812 66.7951,9.5742 66.7951,16.7432 L66.7951,19.2142 L66.7951,21.7142 L69.2951,21.7142 L73.0341,21.7142 L75.5341,21.7142 L75.5341,19.2142 L75.5341,16.6482 C75.5341,6.1492 71.1881,0.7682 62.6161,0.6542 L62.4111,0.6532 Z M62.4111,3.1532 C62.4681,3.1532 62.5251,3.1532 62.5831,3.1542 C69.7741,3.2502 73.0341,7.4312 73.0341,16.6482 L73.0341,19.2142 L69.2951,19.2142 L69.2951,16.7432 C69.2951,10.6622 67.9521,6.4812 62.4881,6.4812 C56.8311,6.4812 55.3921,11.4222 55.3921,17.1232 C55.3921,24.5352 56.9261,26.8162 63.0631,31.4732 C71.2131,37.8402 73.9931,41.1652 73.9931,51.6192 C73.9931,60.4562 71.9791,68.1532 62.3911,68.1532 C53.5701,68.1532 50.5981,62.2622 50.5981,53.8992 L50.5981,50.3832 L54.2411,50.3832 L54.2411,53.8052 C54.2411,61.0262 57.0221,64.8272 62.2951,64.8272 C67.5691,64.8272 70.2541,61.8822 70.2541,51.9992 C70.2541,43.9222 68.4321,40.3102 61.8161,35.2742 C55.0081,30.0472 51.7491,27.0062 51.7491,17.6942 C51.7491,10.0492 54.0191,3.1532 62.4111,3.1532 L62.4111,3.1532 Z" id="Fill-6"></path>
                            <path d="M106.8703,1.4149 L104.3703,1.4149 L85.1943,1.4149 L82.6943,1.4149 L82.6943,3.9149 L82.6943,67.3929 L82.6943,69.8929 L85.1943,69.8929 L104.6583,69.8929 L106.7633,69.8929 L107.1213,67.8189 L107.6963,64.4939 L108.2023,61.5679 L105.2333,61.5679 L91.3373,61.5679 L91.3373,37.3929 L103.5073,37.3929 L106.0073,37.3929 L106.0073,34.8929 L106.0073,31.4729 L106.0073,28.9729 L103.5073,28.9729 L91.3373,28.9729 L91.3373,9.7409 L104.3703,9.7409 L106.8703,9.7409 L106.8703,7.2409 L106.8703,3.9149 L106.8703,1.4149 Z M104.3703,3.9149 L104.3703,7.2409 L88.8373,7.2409 L88.8373,31.4729 L103.5073,31.4729 L103.5073,34.8929 L88.8373,34.8929 L88.8373,64.0679 L105.2333,64.0679 L104.6583,67.3929 L85.1943,67.3929 L85.1943,3.9149 L104.3703,3.9149 Z" id="Fill-8"></path>
                            <path d="M143,1.4149 L140.5,1.4149 L136.857,1.4149 L134.357,1.4149 L134.357,3.9149 L134.357,32.3279 C134.357,35.0429 134.37,37.7069 134.396,40.3969 L123.532,3.2139 L123.006,1.4149 L121.132,1.4149 L116.434,1.4149 L113.934,1.4149 L113.934,3.9149 L113.934,67.3929 L113.934,69.8929 L116.434,69.8929 L120.078,69.8929 L122.578,69.8929 L122.578,67.3929 L122.578,39.3599 C122.578,36.0389 122.547,32.8089 122.498,29.7589 L133.495,68.0829 L134.014,69.8929 L135.898,69.8929 L140.5,69.8929 L143,69.8929 L143,67.3929 L143,3.9149 L143,1.4149 Z M140.5,3.9149 L140.5,67.3929 L135.898,67.3929 L121.036,15.6029 C120.078,12.3719 119.694,9.9969 119.406,8.4759 L119.31,8.4759 C119.694,16.0789 120.078,27.8609 120.078,39.3599 L120.078,67.3929 L116.434,67.3929 L116.434,3.9149 L121.132,3.9149 L134.46,49.5279 C135.994,54.7549 136.761,58.4609 137.144,60.8369 L137.336,60.8369 C137.048,51.5229 136.857,42.5919 136.857,32.3279 L136.857,3.9149 L140.5,3.9149 L140.5,3.9149 Z" id="Fill-10"></path>
                        </g>
                        <g id="CAREERS" transform="translate(0.000000, 108.000000)" fill="#555555">
                            <path d="M5.9574,11.8882 C2.6504,11.8882 0.2504,9.4702 0.2504,6.1382 C0.2504,2.8062 2.6504,0.3882 5.9574,0.3882 C7.6014,0.3882 9.0244,1.0712 10.0754,2.3622 L10.2524,2.5792 L9.0424,3.3492 L8.9044,3.1612 C8.2514,2.2702 7.1214,1.7172 5.9574,1.7172 C3.5014,1.7172 1.7184,3.5762 1.7184,6.1382 C1.7184,8.7002 3.5014,10.5592 5.9574,10.5592 C7.1224,10.5592 8.2514,10.0062 8.9044,9.1152 L9.0404,8.9292 L10.2564,9.6782 L10.0744,9.8992 C8.9934,11.2192 7.6084,11.8882 5.9574,11.8882" id="Fill-12"></path>
                            <path d="M5.9573,0.138 C2.5053,0.138 0.0003,2.661 0.0003,6.138 C0.0003,9.615 2.5053,12.138 5.9573,12.138 C7.6873,12.138 9.1383,11.438 10.2673,10.057 L10.6293,9.615 L10.1433,9.315 L9.3683,8.837 L8.9753,8.595 L8.7023,8.967 C8.0953,9.795 7.0433,10.309 5.9573,10.309 C3.6463,10.309 1.9683,8.555 1.9683,6.138 C1.9683,3.721 3.6463,1.967 5.9573,1.967 C7.0433,1.967 8.0953,2.481 8.7023,3.309 L8.9793,3.687 L9.3743,3.435 L10.1493,2.941 L10.6223,2.639 L10.2683,2.204 C9.1703,0.852 7.6793,0.138 5.9573,0.138 M5.9573,0.638 C7.6683,0.638 8.9603,1.387 9.8803,2.519 L9.1053,3.013 C8.4273,2.089 7.2493,1.467 5.9573,1.467 C3.4223,1.467 1.4683,3.364 1.4683,6.138 C1.4683,8.88 3.4223,10.809 5.9573,10.809 C7.2493,10.809 8.4273,10.187 9.1053,9.263 L9.8803,9.741 C8.9283,10.905 7.6683,11.638 5.9573,11.638 C2.9053,11.638 0.5003,9.406 0.5003,6.138 C0.5003,2.87 2.9053,0.638 5.9573,0.638" id="Fill-14"></path>
                            <path d="M29.598,7.7529 L27.421,2.4459 L25.257,7.7529 L29.598,7.7529 Z M31.175,11.6969 L30.11,9.0819 L24.746,9.0819 L23.681,11.6969 L22.073,11.6969 L26.688,0.5639 L28.168,0.5639 L32.784,11.6969 L31.175,11.6969 Z" id="Fill-16"></path>
                            <path d="M25.629,7.5031 L27.421,3.1061 L29.225,7.5031 L25.629,7.5031 Z M28.335,0.3131 L28.001,0.3131 L26.855,0.3131 L26.521,0.3131 L26.393,0.6221 L21.985,11.2551 L21.699,11.9471 L22.447,11.9471 L23.513,11.9471 L23.849,11.9471 L23.976,11.6351 L24.915,9.3321 L29.942,9.3321 L30.88,11.6351 L31.007,11.9471 L31.343,11.9471 L32.409,11.9471 L33.158,11.9471 L32.871,11.2551 L28.463,0.6221 L28.335,0.3131 Z M24.885,8.0031 L29.971,8.0031 L27.42,1.7861 L24.885,8.0031 L24.885,8.0031 Z M28.001,0.8131 L32.409,11.4471 L31.343,11.4471 L30.278,8.8321 L24.578,8.8321 L23.513,11.4471 L22.447,11.4471 L26.855,0.8131 L28.001,0.8131 Z" id="Fill-18"></path>
                            <path d="M49.892,5.9678 C51.152,5.9678 52.032,5.1268 52.032,3.9218 C52.032,2.7078 51.172,1.8928 49.892,1.8928 L47.122,1.8928 L47.122,5.9678 L49.892,5.9678 Z M52.133,11.6968 L49.115,7.2968 L47.122,7.2968 L47.122,11.6968 L45.703,11.6968 L45.703,0.5638 L49.973,0.5638 C52.05,0.5638 53.5,1.9448 53.5,3.9218 C53.5,5.9198 52.163,6.9678 50.713,7.1908 L53.859,11.6968 L52.133,11.6968 Z" id="Fill-20"></path>
                            <path d="M47.3727,2.1424 L49.8917,2.1424 C51.0217,2.1424 51.7817,2.8574 51.7817,3.9224 C51.7817,4.9964 51.0217,5.7174 49.8917,5.7174 L47.3727,5.7174 L47.3727,2.1424 Z M49.9727,0.3134 L45.9527,0.3134 L45.4527,0.3134 L45.4527,0.8134 L45.4527,11.4464 L45.4527,11.9464 L45.9527,11.9464 L46.8727,11.9464 L47.3727,11.9464 L47.3727,11.4464 L47.3727,7.5464 L48.9827,7.5464 L51.8527,11.7294 L52.0017,11.9464 L52.2657,11.9464 L53.3797,11.9464 L54.3387,11.9464 L53.7897,11.1604 L51.1367,7.3604 C52.7117,6.9614 53.7507,5.6424 53.7507,3.9224 C53.7507,1.7974 52.1967,0.3134 49.9727,0.3134 L49.9727,0.3134 Z M46.8727,6.2174 L49.8917,6.2174 C51.3127,6.2174 52.2817,5.2614 52.2817,3.9224 C52.2817,2.5834 51.3127,1.6424 49.8917,1.6424 L46.8727,1.6424 L46.8727,6.2174 L46.8727,6.2174 Z M49.9727,0.8134 C51.8297,0.8134 53.2507,1.9774 53.2507,3.9224 C53.2507,5.8514 51.8617,6.9194 50.2637,6.9824 L53.3797,11.4464 L52.2657,11.4464 L49.2457,7.0464 L46.8727,7.0464 L46.8727,11.4464 L45.9527,11.4464 L45.9527,0.8134 L49.9727,0.8134 L49.9727,0.8134 Z" id="Fill-22"></path>
                            <path d="M68.2386,11.6968 L68.2386,0.5638 L75.5686,0.5638 L75.5686,1.8928 L69.6596,1.8928 L69.6596,5.3298 L75.4556,5.3298 L75.4556,6.6588 L69.6596,6.6588 L69.6596,10.3678 L75.5686,10.3678 L75.5686,11.6968 L68.2386,11.6968 Z" id="Fill-24"></path>
                            <path d="M75.8185,0.3134 L75.3185,0.3134 L68.4885,0.3134 L67.9885,0.3134 L67.9885,0.8134 L67.9885,11.4464 L67.9885,11.9464 L68.4885,11.9464 L75.3185,11.9464 L75.8185,11.9464 L75.8185,11.4464 L75.8185,10.6174 L75.8185,10.1174 L75.3185,10.1174 L69.9095,10.1174 L69.9095,6.9094 L75.2055,6.9094 L75.7055,6.9094 L75.7055,6.4094 L75.7055,5.5804 L75.7055,5.0804 L75.2055,5.0804 L69.9095,5.0804 L69.9095,2.1424 L75.3185,2.1424 L75.8185,2.1424 L75.8185,1.6424 L75.8185,0.8134 L75.8185,0.3134 Z M75.3185,0.8134 L75.3185,1.6424 L69.4095,1.6424 L69.4095,5.5804 L75.2055,5.5804 L75.2055,6.4094 L69.4095,6.4094 L69.4095,10.6174 L75.3185,10.6174 L75.3185,11.4464 L68.4885,11.4464 L68.4885,0.8134 L75.3185,0.8134 Z" id="Fill-26"></path>
                            <path d="M90.4769,11.6968 L90.4769,0.5638 L97.8059,0.5638 L97.8059,1.8928 L91.8969,1.8928 L91.8969,5.3298 L97.6939,5.3298 L97.6939,6.6588 L91.8969,6.6588 L91.8969,10.3678 L97.8059,10.3678 L97.8059,11.6968 L90.4769,11.6968 Z" id="Fill-28"></path>
                            <path d="M98.0563,0.3134 L97.5563,0.3134 L90.7263,0.3134 L90.2263,0.3134 L90.2263,0.8134 L90.2263,11.4464 L90.2263,11.9464 L90.7263,11.9464 L97.5563,11.9464 L98.0563,11.9464 L98.0563,11.4464 L98.0563,10.6174 L98.0563,10.1174 L97.5563,10.1174 L92.1473,10.1174 L92.1473,6.9094 L97.4433,6.9094 L97.9433,6.9094 L97.9433,6.4094 L97.9433,5.5804 L97.9433,5.0804 L97.4433,5.0804 L92.1473,5.0804 L92.1473,2.1424 L97.5563,2.1424 L98.0563,2.1424 L98.0563,1.6424 L98.0563,0.8134 L98.0563,0.3134 Z M97.5563,0.8134 L97.5563,1.6424 L91.6473,1.6424 L91.6473,5.5804 L97.4433,5.5804 L97.4433,6.4094 L91.6473,6.4094 L91.6473,10.6174 L97.5563,10.6174 L97.5563,11.4464 L90.7263,11.4464 L90.7263,0.8134 L97.5563,0.8134 Z" id="Fill-30"></path>
                            <path d="M116.6049,5.9678 C117.8649,5.9678 118.7449,5.1268 118.7449,3.9218 C118.7449,2.7078 117.8839,1.8928 116.6049,1.8928 L113.8359,1.8928 L113.8359,5.9678 L116.6049,5.9678 Z M118.8469,11.6968 L115.8279,7.2968 L113.8359,7.2968 L113.8359,11.6968 L112.4159,11.6968 L112.4159,0.5638 L116.6859,0.5638 C118.7629,0.5638 120.2129,1.9448 120.2129,3.9218 C120.2129,5.9198 118.8759,6.9678 117.4269,7.1908 L120.5729,11.6968 L118.8469,11.6968 Z" id="Fill-32"></path>
                            <path d="M114.0859,2.1424 L116.6049,2.1424 C117.7349,2.1424 118.4949,2.8574 118.4949,3.9224 C118.4949,4.9964 117.7349,5.7174 116.6049,5.7174 L114.0859,5.7174 L114.0859,2.1424 Z M116.6859,0.3134 L112.6659,0.3134 L112.1659,0.3134 L112.1659,0.8134 L112.1659,11.4464 L112.1659,11.9464 L112.6659,11.9464 L113.5859,11.9464 L114.0859,11.9464 L114.0859,11.4464 L114.0859,7.5464 L115.6959,7.5464 L118.5659,11.7294 L118.7149,11.9464 L118.9789,11.9464 L120.0929,11.9464 L121.0519,11.9464 L120.5029,11.1604 L117.8499,7.3604 C119.4249,6.9614 120.4639,5.6424 120.4639,3.9224 C120.4639,1.7974 118.9099,0.3134 116.6859,0.3134 L116.6859,0.3134 Z M113.5859,6.2174 L116.6049,6.2174 C118.0259,6.2174 118.9949,5.2614 118.9949,3.9224 C118.9949,2.5834 118.0259,1.6424 116.6049,1.6424 L113.5859,1.6424 L113.5859,6.2174 L113.5859,6.2174 Z M116.6859,0.8134 C118.5429,0.8134 119.9639,1.9774 119.9639,3.9224 C119.9639,5.8514 118.5749,6.9194 116.9769,6.9824 L120.0929,11.4464 L118.9789,11.4464 L115.9589,7.0464 L113.5859,7.0464 L113.5859,11.4464 L112.6659,11.4464 L112.6659,0.8134 L116.6859,0.8134 L116.6859,0.8134 Z" id="Fill-34"></path>
                            <path d="M138.6732,11.8882 C136.9652,11.8882 135.4972,11.2562 134.5412,10.1082 L134.4052,9.9442 L135.3312,8.8822 L135.5202,9.0982 C135.9952,9.6442 137.0392,10.5592 138.6902,10.5592 C140.6012,10.5592 141.2812,9.5932 141.2812,8.6892 C141.2812,7.4422 140.1342,7.0442 138.5132,6.6182 C136.7632,6.1422 134.8222,5.6132 134.8222,3.4752 C134.8222,1.6862 136.4152,0.3882 138.6092,0.3882 C140.2162,0.3882 141.5072,0.9202 142.4442,1.9702 L142.5952,2.1392 L141.6352,3.1852 L141.4522,2.9672 C140.7682,2.1492 139.7682,1.7172 138.5612,1.7172 C137.2452,1.7172 136.2912,2.4362 136.2912,3.4282 C136.2912,4.4352 137.3292,4.7822 138.9142,5.1952 C140.6262,5.6802 142.7502,6.2812 142.7502,8.6252 C142.7502,10.2022 141.6792,11.8882 138.6732,11.8882" id="Fill-36"></path>
                            <path d="M138.6091,0.138 C136.2701,0.138 134.5731,1.542 134.5731,3.476 C134.5731,5.804 136.6991,6.384 138.4081,6.849 C140.0091,7.27 141.0311,7.619 141.0311,8.689 C141.0311,9.069 140.8621,10.309 138.6891,10.309 C137.1381,10.309 136.1561,9.448 135.7081,8.934 L135.3311,8.502 L134.9541,8.934 L134.3571,9.619 L134.0771,9.941 L134.3501,10.268 C135.3541,11.474 136.8901,12.138 138.6731,12.138 C141.8671,12.138 143.0001,10.245 143.0001,8.625 C143.0001,6.093 140.7751,5.462 138.9871,4.955 C137.4621,4.558 136.5421,4.258 136.5421,3.428 C136.5421,2.581 137.3911,1.967 138.5601,1.967 C139.3491,1.967 140.4571,2.168 141.2611,3.127 L141.6271,3.564 L142.0131,3.144 L142.6261,2.475 L142.9321,2.141 L142.6311,1.804 C141.6441,0.698 140.2911,0.138 138.6091,0.138 M138.6091,0.638 C140.2231,0.638 141.4181,1.196 142.2581,2.137 L141.6441,2.806 C140.8691,1.881 139.7711,1.467 138.5601,1.467 C137.1231,1.467 136.0421,2.28 136.0421,3.428 C136.0421,4.687 137.3821,5.054 138.8511,5.437 C140.5951,5.931 142.5001,6.473 142.5001,8.625 C142.5001,9.996 141.5801,11.638 138.6731,11.638 C136.8971,11.638 135.5571,10.937 134.7341,9.948 L135.3311,9.263 C136.0261,10.06 137.1561,10.809 138.6891,10.809 C140.9021,10.809 141.5311,9.597 141.5311,8.689 C141.5311,7.19 140.0941,6.776 138.5761,6.377 C136.8811,5.915 135.0731,5.437 135.0731,3.476 C135.0731,1.738 136.6551,0.638 138.6091,0.638" id="Fill-38"></path>
                        </g>
                        <g id="Cap" transform="translate(37.500000, 12.500000) scale(-1, 1) translate(-37.500000, -12.500000) translate(25.000000, 0.000000)">
                            <path d="M24.7333,11.8563 L13.1433,0.2663 C12.7883,-0.0887 12.2123,-0.0887 11.8563,0.2663 L0.2663,11.8563 C-0.0887,12.2123 -0.0887,12.7883 0.2663,13.1443 L11.8563,24.7333 C12.2113,25.0893 12.7883,25.0893 13.1443,24.7333 L18.5993,19.2783 L13.4353,14.1143 C13.1583,14.2763 12.8413,14.3753 12.5003,14.3753 C11.4683,14.3753 10.6253,13.5313 10.6253,12.5003 C10.6253,11.4693 11.4683,10.6253 12.5003,10.6253 C13.5313,10.6253 14.3753,11.4693 14.3753,12.5003 C14.3753,12.8393 14.2773,13.1533 14.1173,13.4293 L19.2833,18.5943 L24.7333,13.1443 C25.0893,12.7883 25.0893,12.2123 24.7333,11.8563" id="Fill-1" fill="#555555"></path>
                            <path d="M9.0022,9.7094 L12.1442,12.8514 L12.8522,12.1444 L9.7092,9.0024 L9.0022,9.7094 Z M16.1732,9.4884 L9.5342,16.1274 L8.8272,15.4204 L15.4662,8.7814 L16.1732,9.4884 Z" id="Fill-4" fill-opacity="0.5" fill="#FFFFFF"></path>
                        </g>
                    </g>
                </g>
            </g>
        </g>
    </g>
</svg>