<?xml version="1.0" encoding="UTF-8" standalone="no"?>
<svg width="166px" height="95px" viewBox="0 0 166 95" version="1.1" xmlns="http://www.w3.org/2000/svg" xmlns:xlink="http://www.w3.org/1999/xlink">
    <!-- Generator: Sketch 3.6.1 (26313) - http://www.bohemiancoding.com/sketch -->
    <title>Logo</title>
    <desc>Created with Sketch.</desc>
    <defs></defs>
    <g id="Landing" stroke="none" stroke-width="1" fill="none" fill-rule="evenodd">
        <g id="Cover" transform="translate(-105.000000, -72.000000)">
            <g id="Content" transform="translate(45.000000, 76.000000)">
                <g id="Masthead" transform="translate(1.000000, 0.000000)">
                    <g id="Logo" transform="translate(59.000000, 0.000000)">
                        <path d="M31.17,90.24 C33.53,90.24 35.13,89.12 36.25,87.6 L34.83,86.82 C34.07,87.96 32.69,88.76 31.17,88.76 C28.25,88.76 26.03,86.5 26.03,83.34 C26.03,80.16 28.25,77.92 31.17,77.92 C32.69,77.92 34.07,78.74 34.83,79.86 L36.23,79.08 C35.17,77.58 33.53,76.44 31.17,76.44 C27.33,76.44 24.31,79.24 24.31,83.34 C24.31,87.44 27.33,90.24 31.17,90.24 L31.17,90.24 Z M54.73,90 L49.35,76.66 L47.29,76.66 L41.93,90 L43.83,90 L45.01,87.04 L51.65,87.04 L52.83,90 L54.73,90 Z M51.15,85.56 L45.49,85.56 L48.33,78.38 L51.15,85.56 Z M71.15,90 L67.55,84.56 C69.37,84.4 71.01,83.08 71.01,80.68 C71.01,78.22 69.27,76.66 66.83,76.66 L61.47,76.66 L61.47,90 L63.13,90 L63.13,84.7 L65.79,84.7 L69.19,90 L71.15,90 Z M66.63,83.24 L63.13,83.24 L63.13,78.14 L66.63,78.14 C68.21,78.14 69.29,79.18 69.29,80.68 C69.29,82.18 68.21,83.24 66.63,83.24 L66.63,83.24 Z M87.37,90 L87.37,88.52 L80.29,88.52 L80.29,83.92 L87.23,83.92 L87.23,82.44 L80.29,82.44 L80.29,78.14 L87.37,78.14 L87.37,76.66 L78.63,76.66 L78.63,90 L87.37,90 Z M103.75,90 L103.75,88.52 L96.67,88.52 L96.67,83.92 L103.61,83.92 L103.61,82.44 L96.67,82.44 L96.67,78.14 L103.75,78.14 L103.75,76.66 L95.01,76.66 L95.01,90 L103.75,90 Z M121.07,90 L117.47,84.56 C119.29,84.4 120.93,83.08 120.93,80.68 C120.93,78.22 119.19,76.66 116.75,76.66 L111.39,76.66 L111.39,90 L113.05,90 L113.05,84.7 L115.71,84.7 L119.11,90 L121.07,90 Z M116.55,83.24 L113.05,83.24 L113.05,78.14 L116.55,78.14 C118.13,78.14 119.21,79.18 119.21,80.68 C119.21,82.18 118.13,83.24 116.55,83.24 L116.55,83.24 Z M132.87,90.24 C136.47,90.24 137.79,88.26 137.79,86.32 C137.79,83.52 135.31,82.84 133.13,82.26 C131.43,81.8 129.89,81.4 129.89,80.06 C129.89,78.8 131.03,77.94 132.63,77.94 C134.09,77.94 135.49,78.44 136.49,79.54 L137.49,78.32 C136.37,77.14 134.79,76.46 132.75,76.46 C130.13,76.46 128.17,77.96 128.17,80.16 C128.17,82.78 130.55,83.38 132.69,83.94 C134.45,84.42 136.07,84.86 136.07,86.46 C136.07,87.48 135.31,88.76 132.93,88.76 C131.05,88.76 129.61,87.84 128.73,86.86 L127.75,88.12 C128.85,89.36 130.55,90.24 132.87,90.24 L132.87,90.24 Z" id="CAREERS" fill="#F17D5F"></path>
                        <path d="M24.2698573,47.166 C28.6198573,45.31 31.4038573,40.67 31.4038573,36.088 C31.4038573,28.2 25.4878573,22.98 16.5558573,22.98 L1.24385731,22.98 C0.779857313,22.98 0.373857313,23.386 0.373857313,23.85 L0.373857313,62.188 C0.373857313,62.594 0.779857313,63 1.24385731,63 L11.4518573,63 C11.9738573,63 12.3798573,62.594 12.3798573,62.188 L12.3798573,49.428 L13.0758573,49.428 L19.1078573,62.072 C19.3398573,62.594 19.8618573,63 20.4418573,63 L32.8538573,63 C33.3758573,63 33.7818573,62.594 33.4918573,62.072 L24.2698573,47.166 Z M12.3798573,39.568 L12.3798573,33.42 L15.8018573,33.42 C17.7738573,33.42 19.1078573,34.638 19.1078573,36.494 C19.1078573,38.35 17.7738573,39.568 15.8018573,39.568 L12.3798573,39.568 Z M40.6507144,22.98 C40.2447144,22.98 39.8387144,23.386 39.8387144,23.85 L39.8387144,62.188 C39.8387144,62.594 40.2447144,63 40.6507144,63 L50.9167144,63 C51.4387144,63 51.7867144,62.594 51.7867144,62.188 L51.7867144,23.85 C51.7867144,23.386 51.4387144,22.98 50.9167144,22.98 L40.6507144,22.98 Z M59.6415715,58.998 C59.4675715,59.288 59.6415715,59.694 60.1055715,60.042 C63.0055715,62.362 68.1095715,63.87 72.9815715,63.87 C81.9135715,63.87 87.8875715,58.708 87.8875715,50.994 C87.8875715,38.234 71.4735715,38.466 71.4735715,35.044 C71.4735715,33.768 72.6335715,32.956 74.4315715,32.956 C76.4615715,33.13 79.7675715,34.348 82.6095715,35.972 C83.0735715,36.262 83.4795715,36.088 83.6535715,35.508 L87.3075715,27.33 C87.4815715,27.04 87.3075715,26.576 86.8435715,26.286 C83.1895715,23.792 77.9695715,22.11 73.8515715,22.11 C65.0355715,22.11 59.1775715,27.272 59.1775715,35.044 C59.1775715,47.688 75.4755715,47.514 75.4755715,50.936 C75.4755715,52.27 74.2575715,53.14 72.4015715,53.14 C70.1975715,52.966 67.0075715,51.864 64.3395715,50.356 C63.8755715,50.066 63.4695715,50.24 63.2955715,50.82 L59.6415715,58.998 Z M107.226429,52.56 L107.226429,47.63 L118.478429,47.63 C119.000429,47.63 119.406429,47.224 119.464429,46.876 L120.276429,38.756 C120.334429,38.408 120.044429,38.002 119.522429,38.002 L107.226429,38.002 L107.226429,33.42 L122.364429,33.42 C122.886429,33.42 123.292429,33.072 123.292429,32.55 L123.292429,23.792 C123.292429,23.386 122.886429,22.98 122.364429,22.98 L95.9744285,22.98 C95.4524285,22.98 95.1624285,23.27 95.1624285,23.792 L95.1624285,62.13 C95.2784285,62.536 95.6844285,63 96.0904285,63 L123.060429,63 C123.524429,63 123.930429,62.594 123.930429,62.188 L123.930429,53.314 C123.930429,52.908 123.524429,52.56 123.060429,52.56 L107.226429,52.56 Z M154.347286,22.98 C153.941286,22.98 153.535286,23.386 153.535286,23.85 L153.535286,41.772 L143.501286,23.734 C143.269286,23.27 142.689286,22.98 142.167286,22.98 L132.133286,22.98 C131.669286,22.98 131.321286,23.386 131.321286,23.85 L131.321286,62.188 C131.321286,62.594 131.669286,63 132.133286,63 L142.399286,63 C142.921286,63 143.269286,62.594 143.269286,62.188 L143.269286,44.208 L153.361286,62.246 C153.651286,62.71 154.173286,63 154.579286,63 L164.613286,63 C165.135286,63 165.483286,62.594 165.483286,62.188 L165.483286,23.85 C165.483286,23.386 165.135286,22.98 164.613286,22.98 L154.347286,22.98 Z" id="RISEN" fill="#F17D5F"></path>
                        <g id="Mark" transform="translate(31.000000, 0.000000)" stroke="#F17D5F" stroke-width="5" stroke-linecap="round">
                            <path d="M0,13.6447716 L11.6337072,0.840904195 C13.4928594,-1.20524819 16.5069359,-1.20547356 18.3662928,0.840904195 L30,13.6447716" id="Path-1"></path>
                        </g>
                    </g>
                </g>
            </g>
        </g>
    </g>
</svg>