<?xml version="1.0" encoding="UTF-8" standalone="no"?>
<svg width="52px" height="25px" viewBox="0 0 52 25" version="1.1" xmlns="http://www.w3.org/2000/svg" xmlns:xlink="http://www.w3.org/1999/xlink">
    <!-- Generator: Sketch 3.6.1 (26313) - http://www.bohemiancoding.com/sketch -->
    <title>Logotype</title>
    <desc>Created with Sketch.</desc>
    <defs></defs>
    <g id="Employers" stroke="none" stroke-width="1" fill="none" fill-rule="evenodd">
        <g id="Employers-&gt;-Students" transform="translate(-45.000000, -52.000000)" fill="#F17D5F">
            <g id="Content" transform="translate(45.000000, 52.000000)">
                <g id="App-&gt;-Backend-&gt;-Header">
                    <g id="Logo">
                        <g id="Logotype">
                            <path d="M4.38578571,11.1375714 C6.23042857,11.1375714 6.88435714,10.1622143 6.88435714,7.40971429 L6.88435714,6.15364286 C6.88435714,3.73971429 6.06864286,2.799 3.97507143,2.799 L2.64078571,2.799 L2.64078571,11.1375714 L4.38578571,11.1375714 L4.38578571,11.1375714 Z M7.06292857,24.2822143 L6.99435714,23.9179286 C6.73757143,22.5486429 6.74364286,19.2068571 6.7465,17.4111429 L6.74721429,16.9465 C6.74721429,13.8736429 6.32114286,13.2522143 4.21471429,13.2522143 L2.64078571,13.2522143 L2.64078571,24.2822143 L0.4465,24.2822143 L0.4465,0.718285714 L3.97507143,0.718285714 C7.5515,0.718285714 9.14685714,2.384 9.14685714,6.11971429 L9.14685714,7.34185714 C9.14685714,9.70685714 8.56185714,11.3143571 7.40614286,12.139 C8.68435714,12.9754286 8.97542857,14.6325714 8.97542857,16.8107857 L8.97471429,17.4075714 C8.97185714,19.4129286 8.96721429,22.4429286 9.20792857,23.7550714 L9.30435714,24.2822143 L7.06292857,24.2822143 L7.06292857,24.2822143 Z" id="Fill-1"></path>
                            <path d="M3.08703571,3.2455 L3.97489286,3.2455 C5.81632143,3.2455 6.43775,3.97942857 6.43775,6.15371429 L6.43775,7.40942857 C6.43775,10.1837143 5.74667857,10.6912143 4.38560714,10.6912143 L3.08703571,10.6912143 L3.08703571,3.2455 Z M3.97489286,0.271928571 L0.89275,0.271928571 L-0.000107142857,0.271928571 L-0.000107142857,1.16478571 L-0.000107142857,23.8358571 L-0.000107142857,24.7287143 L0.89275,24.7287143 L2.19417857,24.7287143 L3.08703571,24.7287143 L3.08703571,23.8358571 L3.08703571,13.6987143 L4.21453571,13.6987143 C5.40203571,13.6987143 5.73275,13.9533571 5.89989286,14.2022857 C6.25310714,14.7294286 6.30060714,15.8851429 6.30060714,16.9462143 L6.30025,17.4101429 C6.29703571,19.2201429 6.29096429,22.5897857 6.55560714,24.0005 L6.69239286,24.7287143 L7.43310714,24.7287143 L8.76882143,24.7287143 L9.84060714,24.7287143 L9.64703571,23.6747857 C9.41382143,22.4026429 9.41846429,19.2758571 9.42132143,17.4076429 L9.42203571,16.8105 C9.42203571,14.9865714 9.23239286,13.2097857 8.11132143,12.1326429 C9.09596429,11.1608571 9.59310714,9.55764286 9.59310714,7.34157143 L9.59310714,6.11978571 C9.59310714,2.13014286 7.80775,0.271928571 3.97489286,0.271928571 L3.97489286,0.271928571 Z M2.19417857,11.5840714 L4.38560714,11.5840714 C6.88525,11.5840714 7.33060714,9.78514286 7.33060714,7.40942857 L7.33060714,6.15371429 C7.33060714,3.77835714 6.54310714,2.35264286 3.97489286,2.35264286 L2.19417857,2.35264286 L2.19417857,11.5840714 L2.19417857,11.5840714 Z M3.97489286,1.16478571 C7.36489286,1.16478571 8.70025,2.72585714 8.70025,6.11978571 L8.70025,7.34157143 C8.70025,10.0226429 7.94703571,11.6515714 6.37167857,12.1608571 C7.91275,12.6022857 8.52917857,13.8237143 8.52917857,16.8105 C8.52917857,18.7790714 8.49489286,22.3426429 8.76882143,23.8358571 L7.43310714,23.8358571 C7.15953571,22.3762143 7.19346429,18.4733571 7.19346429,16.9462143 C7.19346429,13.8237143 6.71417857,12.8058571 4.21453571,12.8058571 L2.19417857,12.8058571 L2.19417857,23.8358571 L0.89275,23.8358571 L0.89275,1.16478571 L3.97489286,1.16478571 L3.97489286,1.16478571 Z" id="Fill-3"></path>
                            <path d="M12.3228571,24.2821429 L14.5171429,24.2821429 L14.5171429,0.718214286 L12.3228571,0.718214286 L12.3228571,24.2821429 Z" id="Fill-6"></path>
                            <path d="M14.9633214,0.272071429 L14.0704643,0.272071429 L12.7690357,0.272071429 L11.8761786,0.272071429 L11.8761786,1.16492857 L11.8761786,23.8356429 L11.8761786,24.7285 L12.7690357,24.7285 L14.0704643,24.7285 L14.9633214,24.7285 L14.9633214,23.8356429 L14.9633214,1.16492857 L14.9633214,0.272071429 Z M12.7690357,23.8356429 L14.0704643,23.8356429 L14.0704643,1.16492857 L12.7690357,1.16492857 L12.7690357,23.8356429 Z" id="Fill-8"></path>
                            <path d="M22.2826786,24.5534643 C19.1916071,24.5534643 17.6244643,22.6906071 17.6244643,19.0166786 L17.6244643,17.3141786 L19.8183929,17.3141786 L19.8183929,18.98275 C19.8183929,21.2988214 20.6358929,22.4731071 22.2483929,22.4731071 C23.4605357,22.4731071 24.6441071,22.1534643 24.6441071,18.33775 C24.6441071,15.5906071 24.0608929,14.4356071 21.8066071,12.7198929 C19.3973214,10.87025 18.0351786,9.65025 18.0351786,6.08596429 C18.0351786,1.42453571 20.34875,0.446321429 22.2898214,0.446321429 L22.35625,0.446678571 C25.1651786,0.483821429 26.5301786,2.20667857 26.5301786,5.71239286 L26.5301786,7.07525 L24.3019643,7.07525 L24.3019643,5.74667857 C24.3019643,3.07489286 23.5083929,2.52775 22.3169643,2.52775 C21.4208929,2.52775 20.2294643,2.87560714 20.2294643,5.88239286 C20.2294643,8.42917857 20.7480357,9.09989286 22.7923214,10.6513214 C25.6930357,12.91775 26.8726786,14.2334643 26.8726786,18.2020357 C26.8726786,20.9288214 26.3969643,24.5534643 22.2826786,24.5534643" id="Fill-9"></path>
                            <path d="M22.2896786,0 C18.1996786,0 17.5889643,3.81321429 17.5889643,6.08607143 C17.5889643,9.85285714 19.0878929,11.195 21.53325,13.0728571 C23.6753929,14.7032143 24.1978929,15.7360714 24.1978929,18.3378571 C24.1978929,22.0264286 23.1168214,22.0264286 22.24825,22.0264286 C21.70575,22.0264286 20.2646786,22.0264286 20.2646786,18.9828571 L20.2646786,17.7607143 L20.2646786,16.8678571 L19.3718214,16.8678571 L18.07075,16.8678571 L17.1778929,16.8678571 L17.1778929,17.7607143 L17.1778929,19.0164286 C17.1778929,23.9617857 19.9539643,25 22.2825357,25 C27.3189643,25 27.3189643,19.8835714 27.3189643,18.2021429 C27.3189643,14.0546429 26.0250357,12.6103571 23.0721786,10.3035714 C20.98825,8.72178571 20.67575,8.14428571 20.67575,5.88214286 C20.67575,2.97428571 21.7843214,2.97428571 22.3171786,2.97428571 C23.1275357,2.97428571 23.8553929,3.18607143 23.8553929,5.74642857 L23.8553929,6.62892857 L23.8553929,7.52178571 L24.74825,7.52178571 L26.0836071,7.52178571 L26.9764643,7.52178571 L26.9764643,6.62892857 L26.9764643,5.7125 C26.9764643,1.96285714 25.4243214,0.0410714286 22.3628929,0.000357142857 L22.2896786,0 Z M22.2896786,0.892857143 C22.3100357,0.892857143 22.3303929,0.892857143 22.3511071,0.893214286 C24.9193214,0.9275 26.0836071,2.42071429 26.0836071,5.7125 L26.0836071,6.62892857 L24.74825,6.62892857 L24.74825,5.74642857 C24.74825,3.57464286 24.2686071,2.08142857 22.3171786,2.08142857 C20.2968214,2.08142857 19.7828929,3.84607143 19.7828929,5.88214286 C19.7828929,8.52928571 20.33075,9.34392857 22.5225357,11.0071429 C25.43325,13.2810714 26.4261071,14.4685714 26.4261071,18.2021429 C26.4261071,21.3582143 25.7068214,24.1071429 22.2825357,24.1071429 C19.1321786,24.1071429 18.07075,22.0032143 18.07075,19.0164286 L18.07075,17.7607143 L19.3718214,17.7607143 L19.3718214,18.9828571 C19.3718214,21.5617857 20.3650357,22.9192857 22.24825,22.9192857 C24.1318214,22.9192857 25.09075,21.8675 25.09075,18.3378571 C25.09075,15.4532143 24.4400357,14.1632143 22.0771786,12.3646429 C19.6461071,10.4978571 18.4818214,9.41178571 18.4818214,6.08607143 C18.4818214,3.35571429 19.2925357,0.892857143 22.2896786,0.892857143 L22.2896786,0.892857143 Z" id="Fill-10"></path>
                            <path d="M29.9798929,24.2821071 L29.9798929,0.718178571 L37.7216786,0.718178571 L37.7216786,2.79925 L32.1741786,2.79925 L32.1741786,10.5606786 L37.4131071,10.5606786 L37.4131071,12.6749643 L32.1741786,12.6749643 L32.1741786,22.20175 L38.1131071,22.20175 L37.7538214,24.2821071 L29.9798929,24.2821071 Z" id="Fill-11"></path>
                            <path d="M38.1679643,0.272071429 L37.2751071,0.272071429 L30.4265357,0.272071429 L29.5336786,0.272071429 L29.5336786,1.16492857 L29.5336786,23.8356429 L29.5336786,24.7285 L30.4265357,24.7285 L37.3779643,24.7285 L38.12975,24.7285 L38.2576071,23.9877857 L38.4629643,22.8002857 L38.6436786,21.7552857 L37.5833214,21.7552857 L32.6204643,21.7552857 L32.6204643,13.1213571 L36.9668929,13.1213571 L37.85975,13.1213571 L37.85975,12.2285 L37.85975,11.0070714 L37.85975,10.1142143 L36.9668929,10.1142143 L32.6204643,10.1142143 L32.6204643,3.24564286 L37.2751071,3.24564286 L38.1679643,3.24564286 L38.1679643,2.35278571 L38.1679643,1.16492857 L38.1679643,0.272071429 Z M37.2751071,1.16492857 L37.2751071,2.35278571 L31.7276071,2.35278571 L31.7276071,11.0070714 L36.9668929,11.0070714 L36.9668929,12.2285 L31.7276071,12.2285 L31.7276071,22.6481429 L37.5833214,22.6481429 L37.3779643,23.8356429 L30.4265357,23.8356429 L30.4265357,1.16492857 L37.2751071,1.16492857 Z" id="Fill-12"></path>
                            <path d="M48.1987143,24.2821071 L43.2215714,6.93817857 C43.2805,8.87282143 43.3312143,11.2728214 43.3312143,13.8238929 L43.3312143,24.2821071 L41.1372857,24.2821071 L41.1372857,0.718178571 L43.5962143,0.718178571 C43.5962143,0.718178571 48.4812143,17.4374643 48.4965714,17.4906786 C48.4512143,15.3403214 48.4308571,13.3681786 48.4308571,11.3124643 L48.4308571,0.718178571 L50.6251429,0.718178571 L50.6251429,24.2821071 L48.1987143,24.2821071 Z" id="Fill-13"></path>
                            <path d="M51.0714286,0.272071429 L50.1785714,0.272071429 L48.8775,0.272071429 L47.9846429,0.272071429 L47.9846429,1.16492857 L47.9846429,11.3124286 C47.9846429,12.2820714 47.9892857,13.2335 47.9985714,14.1942143 L44.1185714,0.914571429 L43.9307143,0.272071429 L43.2614286,0.272071429 L41.5835714,0.272071429 L40.6907143,0.272071429 L40.6907143,1.16492857 L40.6907143,23.8356429 L40.6907143,24.7285 L41.5835714,24.7285 L42.885,24.7285 L43.7778571,24.7285 L43.7778571,23.8356429 L43.7778571,13.8238571 C43.7778571,12.6377857 43.7667857,11.4842143 43.7492857,10.3949286 L47.6767857,24.0820714 L47.8621429,24.7285 L48.535,24.7285 L50.1785714,24.7285 L51.0714286,24.7285 L51.0714286,23.8356429 L51.0714286,1.16492857 L51.0714286,0.272071429 Z M50.1785714,1.16492857 L50.1785714,23.8356429 L48.535,23.8356429 L43.2271429,5.33921429 C42.885,4.18528571 42.7478571,3.33707143 42.645,2.79385714 L42.6107143,2.79385714 C42.7478571,5.50921429 42.885,9.71707143 42.885,13.8238571 L42.885,23.8356429 L41.5835714,23.8356429 L41.5835714,1.16492857 L43.2614286,1.16492857 L48.0214286,17.4552857 C48.5692857,19.3220714 48.8432143,20.6456429 48.98,21.4942143 L49.0485714,21.4942143 C48.9457143,18.1677857 48.8775,14.9781429 48.8775,11.3124286 L48.8775,1.16492857 L50.1785714,1.16492857 L50.1785714,1.16492857 Z" id="Fill-14"></path>
                        </g>
                    </g>
                </g>
            </g>
        </g>
    </g>
</svg>