<?xml version="1.0" encoding="UTF-8" standalone="no"?>
<svg width="98px" height="25px" viewBox="0 0 98 25" version="1.1" xmlns="http://www.w3.org/2000/svg" xmlns:xlink="http://www.w3.org/1999/xlink">
    <!-- Generator: Sketch 3.6.1 (26313) - http://www.bohemiancoding.com/sketch -->
    <title>StreamlinedLogo</title>
    <desc>Created with Sketch.</desc>
    <defs></defs>
    <g id="Employers" stroke="none" stroke-width="1" fill="none" fill-rule="evenodd">
        <g id="Employers-&gt;-Students" transform="translate(-46.000000, -51.000000)" fill="#F17D5F">
            <g id="Content" transform="translate(45.000000, 51.000000)">
                <g id="App-&gt;-Backend-&gt;-Header" transform="translate(1.000000, 0.000000)">
                    <g id="StreamlinedLogo">
                        <path d="M14.3995713,14.718 C16.9495713,13.63 18.5815713,10.91 18.5815713,8.224 C18.5815713,3.6 15.1135713,0.54 9.87757134,0.54 L0.901571343,0.54 C0.629571343,0.54 0.391571343,0.778 0.391571343,1.05 L0.391571343,23.524 C0.391571343,23.762 0.629571343,24 0.901571343,24 L6.88557134,24 C7.19157134,24 7.42957134,23.762 7.42957134,23.524 L7.42957134,16.044 L7.83757134,16.044 L11.3735713,23.456 C11.5095713,23.762 11.8155713,24 12.1555713,24 L19.4315713,24 C19.7375713,24 19.9755713,23.762 19.8055713,23.456 L14.3995713,14.718 Z M7.42957134,10.264 L7.42957134,6.66 L9.43557134,6.66 C10.5915713,6.66 11.3735713,7.374 11.3735713,8.462 C11.3735713,9.55 10.5915713,10.264 9.43557134,10.264 L7.42957134,10.264 Z M24.0021428,0.54 C23.7641428,0.54 23.5261428,0.778 23.5261428,1.05 L23.5261428,23.524 C23.5261428,23.762 23.7641428,24 24.0021428,24 L30.0201428,24 C30.3261428,24 30.5301428,23.762 30.5301428,23.524 L30.5301428,1.05 C30.5301428,0.778 30.3261428,0.54 30.0201428,0.54 L24.0021428,0.54 Z M35.1347143,21.654 C35.0327143,21.824 35.1347143,22.062 35.4067143,22.266 C37.1067143,23.626 40.0987143,24.51 42.9547143,24.51 C48.1907143,24.51 51.6927143,21.484 51.6927143,16.962 C51.6927143,9.482 42.0707143,9.618 42.0707143,7.612 C42.0707143,6.864 42.7507143,6.388 43.8047143,6.388 C44.9947143,6.49 46.9327143,7.204 48.5987143,8.156 C48.8707143,8.326 49.1087143,8.224 49.2107143,7.884 L51.3527143,3.09 C51.4547143,2.92 51.3527143,2.648 51.0807143,2.478 C48.9387143,1.016 45.8787143,0.03 43.4647143,0.03 C38.2967143,0.03 34.8627143,3.056 34.8627143,7.612 C34.8627143,15.024 44.4167143,14.922 44.4167143,16.928 C44.4167143,17.71 43.7027143,18.22 42.6147143,18.22 C41.3227143,18.118 39.4527143,17.472 37.8887143,16.588 C37.6167143,16.418 37.3787143,16.52 37.2767143,16.86 L35.1347143,21.654 Z M63.0292857,17.88 L63.0292857,14.99 L69.6252857,14.99 C69.9312857,14.99 70.1692857,14.752 70.2032857,14.548 L70.6792857,9.788 C70.7132857,9.584 70.5432857,9.346 70.2372857,9.346 L63.0292857,9.346 L63.0292857,6.66 L71.9032857,6.66 C72.2092857,6.66 72.4472857,6.456 72.4472857,6.15 L72.4472857,1.016 C72.4472857,0.778 72.2092857,0.54 71.9032857,0.54 L56.4332857,0.54 C56.1272857,0.54 55.9572857,0.71 55.9572857,1.016 L55.9572857,23.49 C56.0252857,23.728 56.2632857,24 56.5012857,24 L72.3112857,24 C72.5832857,24 72.8212857,23.762 72.8212857,23.524 L72.8212857,18.322 C72.8212857,18.084 72.5832857,17.88 72.3112857,17.88 L63.0292857,17.88 Z M90.6518572,0.54 C90.4138572,0.54 90.1758572,0.778 90.1758572,1.05 L90.1758572,11.556 L84.2938572,0.982 C84.1578572,0.71 83.8178572,0.54 83.5118572,0.54 L77.6298572,0.54 C77.3578572,0.54 77.1538572,0.778 77.1538572,1.05 L77.1538572,23.524 C77.1538572,23.762 77.3578572,24 77.6298572,24 L83.6478572,24 C83.9538572,24 84.1578572,23.762 84.1578572,23.524 L84.1578572,12.984 L90.0738572,23.558 C90.2438572,23.83 90.5498572,24 90.7878572,24 L96.6698572,24 C96.9758572,24 97.1798572,23.762 97.1798572,23.524 L97.1798572,1.05 C97.1798572,0.778 96.9758572,0.54 96.6698572,0.54 L90.6518572,0.54 Z" id="RISEN"></path>
                    </g>
                </g>
            </g>
        </g>
    </g>
</svg>